# xmcd
#
# Track frame offsets:
#	150
#	15445
#	27403
#	43309
#	58556
#	75976
#	88011
#	106546
#	123469
#	139862
#	159226
#	176622
#	192928
#	206990
#
# Disc length: 2904 seconds
#
# Revision: 4
# Processed by: cddbd v1.5.2PL0 Copyright (c) Steve Scherf et al.
# Submitted via: audiograbber 1.83.01
#
DISCID=b20b560e
DTITLE=Willie Nelson and Family - Let's Face The Music And Dance
DYEAR=2013
DGENRE=Country
TTITLE0=Let's Face The Music And Dance
TTITLE1=Is The Better Part Over
TTITLE2=You'll Never Know
TTITLE3=Vous Et Moi
TTITLE4=Walking My Baby Back Home
TTITLE5=Matchbox
TTITLE6=Twilight Time
TTITLE7=I Can't Give You Anything But Love
TTITLE8=I'll Keep On Loving You
TTITLE9=I Wish I Didn't Love You So
TTITLE10=South Of The Border
TTITLE11=Nuages
TTITLE12=Marie (The Dawn Is Breaking)
TTITLE13=Shame On You
EXTD=
EXTT0=
EXTT1=
EXTT2=
EXTT3=
EXTT4=
EXTT5=
EXTT6=
EXTT7=
EXTT8=
EXTT9=
EXTT10=
EXTT11=
EXTT12=
EXTT13=
PLAYORDER=
